<svg width="512" height="512" viewBox="0 0 512 512" fill="none" xmlns="http://www.w3.org/2000/svg">
  <rect width="512" height="512" rx="80" fill="#2563eb"/>
  <path d="M256 80C156.5 80 76 160.5 76 260C76 359.5 156.5 440 256 440C355.5 440 436 359.5 436 260C436 160.5 355.5 80 256 80Z" fill="white" opacity="0.2"/>
  <circle cx="256" cy="200" r="60" fill="white"/>
  <circle cx="216" cy="180" r="12" fill="#2563eb"/>
  <circle cx="296" cy="180" r="12" fill="#2563eb"/>
  <path d="M190 260C190 280 221 300 256 300C291 300 322 280 322 260" stroke="white" stroke-width="30" stroke-linecap="round"/>
  <rect x="180" y="350" width="152" height="30" rx="15" fill="white"/>
  <circle cx="206" cy="365" r="10" fill="#2563eb"/>
  <circle cx="256" cy="365" r="10" fill="#2563eb"/>
  <circle cx="306" cy="365" r="10" fill="#2563eb"/>
</svg>
